<?xml version="1.0" encoding="UTF-8" standalone="no"?>
<!-- Created with Inkscape (http://www.inkscape.org/) -->

<svg
   xmlns:dc="http://purl.org/dc/elements/1.1/"
   xmlns:cc="http://creativecommons.org/ns#"
   xmlns:rdf="http://www.w3.org/1999/02/22-rdf-syntax-ns#"
   xmlns:svg="http://www.w3.org/2000/svg"
   xmlns="http://www.w3.org/2000/svg"
   xmlns:xlink="http://www.w3.org/1999/xlink"
   xmlns:sodipodi="http://sodipodi.sourceforge.net/DTD/sodipodi-0.dtd"
   xmlns:inkscape="http://www.inkscape.org/namespaces/inkscape"
   width="48"
   height="48"
   id="svg2"
   sodipodi:version="0.32"
   inkscape:version="0.91+devel r"
   version="1.0"
   sodipodi:docname="zh_s.svg"
   inkscape:output_extension="org.inkscape.output.svg.inkscape"
   sodipodi:modified="TRUE"
   inkscape:export-filename="de.png"
   inkscape:export-xdpi="19.200001"
   inkscape:export-ydpi="19.200001"
   viewBox="0 0 48 48">
  <defs
     id="defs4" />
  <sodipodi:namedview
     id="base"
     pagecolor="#ffffff"
     bordercolor="#666666"
     borderopacity="1.0"
     gridtolerance="10000"
     guidetolerance="10"
     objecttolerance="10"
     inkscape:pageopacity="0.0"
     inkscape:pageshadow="2"
     inkscape:zoom="6.1677852"
     inkscape:cx="-41.596844"
     inkscape:cy="17.419478"
     inkscape:document-units="px"
     inkscape:current-layer="layer2"
     inkscape:window-width="1855"
     inkscape:window-height="1056"
     inkscape:window-x="65"
     inkscape:window-y="24"
     showgrid="false"
     inkscape:window-maximized="1"
     fit-margin-top="0"
     fit-margin-left="0"
     fit-margin-right="0"
     fit-margin-bottom="0" />
  <metadata
     id="metadata7">
    <rdf:RDF>
      <cc:Work
         rdf:about="">
        <dc:format>image/svg+xml</dc:format>
        <dc:type
           rdf:resource="http://purl.org/dc/dcmitype/StillImage" />
        <dc:title />
      </cc:Work>
    </rdf:RDF>
  </metadata>
  <g
     inkscape:label="Layer 1"
     inkscape:groupmode="layer"
     id="layer1"
     transform="translate(-211.56697,-377.19187)"
     style="display:inline" />
  <g
     inkscape:groupmode="layer"
     id="layer2"
     inkscape:label="Layer 2"
     style="display:inline"
     transform="translate(-8.3001022,-200.1479)">
    <circle
       style="color:#000000;display:inline;overflow:visible;visibility:visible;fill:#cc0000;stroke:#000000;stroke-width:2.01406479;stroke-linecap:round;stroke-linejoin:round;stroke-miterlimit:4;stroke-dasharray:none;stroke-dashoffset:0;stroke-opacity:1;marker:none;enable-background:accumulate"
       id="path5131-0"
       cx="32.300102"
       cy="224.1479"
       r="22.992968" />
    <g
       id="g19056"
       transform="matrix(0.58859011,0,0,0.58859011,281.07458,-324.32925)">
      <g
         transform="matrix(0.16237112,0,0,0.16237112,-496.42671,883.87296)"
         id="petal">
        <path
           inkscape:connector-curvature="0"
           style="fill:#ffffff"
           id="path3961"
           d="m 449.96406,299.9134 c -105.26305,-44.48626 -58.60174,-181.58185 42.06956,-174.6907 -20.36609,10.46694 -23.31775,29.99772 -11.68704,48.09021 13.02444,20.2558 -1.19897,52.84856 -18.80577,60.7674 -28.93485,13.02443 -34.72791,47.74999 -11.57675,65.83309 z" />
        <path
           inkscape:connector-curvature="0"
           style="fill:#de2910"
           id="path3963"
           d="m 444.27188,200.91974 -5.91976,9.29378 -2.14454,-10.8142 -10.67812,-2.75928 9.62461,-5.3895 -0.67104,-10.99955 8.08542,7.48945 10.25578,-4.04271 -4.61053,10.00942 7.00143,8.50541 z" />
        <path
           inkscape:connector-curvature="0"
           style="fill:#de2910"
           id="path3965"
           d="m 450.56002,298.75902 c -12.73114,-6.53451 -22.9963,-20.15491 -27.46839,-36.43134 -5.11498,-18.66969 -2.17269,-38.74247 8.08308,-55.03768 l -2.20789,-1.39371 c -10.64057,16.92871 -13.69313,37.74293 -8.38575,57.11886 4.72784,17.22201 15.21355,31.09815 28.78703,38.06438 z" />
      </g>
      <use
         xlink:href="#petal"
         height="600"
         width="900"
         y="0"
         x="0"
         id="use3967"
         transform="rotate(-144.00001,-423.35742,932.59463)" />
      <use
         xlink:href="#petal"
         height="600"
         width="900"
         y="0"
         x="0"
         id="use3969"
         transform="rotate(144.00001,-423.35736,932.57316)" />
      <use
         xlink:href="#petal"
         height="600"
         width="900"
         y="0"
         x="0"
         id="use3971"
         transform="rotate(72.000008,-423.31337,932.64241)" />
      <use
         xlink:href="#petal"
         height="600"
         width="900"
         y="0"
         x="0"
         id="use3975"
         transform="rotate(-72.000008,-423.40229,932.62256)" />
    </g>
  </g>
</svg>
